<svg width="180" height="40" viewBox="0 0 180 40" fill="none" xmlns="http://www.w3.org/2000/svg">
<g clip-path="url(#clip0_1406_21854)">
<path d="M27.2605 8.58407H30.93V11.5929C31.7355 10.531 32.541 9.73451 33.436 9.20354C34.7785 8.31858 36.3 7.9646 38.0005 7.9646C40.596 7.9646 42.744 8.93805 44.534 10.885C46.324 12.8319 47.219 15.6637 47.219 19.292C47.219 24.1593 45.8765 27.6991 43.281 29.823C41.67 31.1504 39.701 31.8584 37.553 31.8584C35.8525 31.8584 34.4205 31.5044 33.257 30.708C32.541 30.2655 31.825 29.5575 31.0195 28.5841V40.0885H27.171V8.58407H27.2605ZM41.5805 26.2832C42.744 24.7788 43.3705 22.5664 43.3705 19.646C43.3705 17.8761 43.102 16.2832 42.565 15.0442C41.5805 12.5664 39.7905 11.3274 37.1055 11.3274C34.4205 11.3274 32.6305 12.6549 31.646 15.2212C31.109 16.6372 30.8405 18.4071 30.8405 20.531C30.8405 22.3009 31.109 23.7168 31.646 24.9558C32.6305 27.2566 34.4205 28.4071 37.1055 28.4071C38.985 28.4956 40.417 27.6991 41.5805 26.2832Z" fill="#2844BD"/>
<path d="M51.515 8.58407H55.274V11.5929C56.0795 10.531 56.885 9.73451 57.78 9.20354C59.033 8.31858 60.5545 7.9646 62.255 7.9646C64.8505 7.9646 66.9985 8.93805 68.7885 10.885C70.5785 12.8319 71.4735 15.6637 71.4735 19.292C71.4735 24.1593 70.131 27.6991 67.5355 29.823C65.9245 31.1504 63.9555 31.8584 61.8075 31.8584C60.107 31.8584 58.675 31.5044 57.5115 30.708C56.7955 30.2655 56.0795 29.5575 55.274 28.5841V40.0885H51.515V8.58407ZM65.835 26.2832C66.9985 24.7788 67.625 22.5664 67.625 19.646C67.625 17.8761 67.3565 16.2832 66.8195 15.0442C65.835 12.4779 64.045 11.2389 61.36 11.2389C58.675 11.2389 56.885 12.5664 55.9005 15.1327C55.3635 16.5487 55.095 18.3186 55.095 20.4425C55.095 22.2124 55.3635 23.6283 55.9005 24.8673C56.885 27.1681 58.675 28.3186 61.36 28.3186C63.15 28.4956 64.6715 27.6991 65.835 26.2832Z" fill="#2844BD"/>
<path d="M88.21 17.3451C89.105 17.2566 89.642 16.9027 90 16.2832C90.179 15.9292 90.2685 15.4867 90.2685 14.8673C90.2685 13.5398 89.821 12.6549 88.8365 12.0354C87.9415 11.4159 86.599 11.1504 84.809 11.1504C82.84 11.1504 81.408 11.6814 80.513 12.7434C80.0655 13.3628 79.7075 14.2478 79.618 15.3982H76.038C76.1275 12.6549 77.0225 10.708 78.8125 9.64602C80.6025 8.58407 82.5715 8.0531 84.8985 8.0531C87.5835 8.0531 89.7315 8.58407 91.432 9.55753C93.1325 10.531 93.938 12.1239 93.938 14.2478V27.2566C93.938 27.6106 94.0275 27.9646 94.2065 28.2301C94.3855 28.4956 94.7435 28.5841 95.2805 28.5841C95.4595 28.5841 95.6385 28.5841 95.8175 28.5841C95.9965 28.5841 96.265 28.4956 96.5335 28.4956V31.3274C95.907 31.5044 95.4595 31.5929 95.191 31.6814C94.9225 31.6814 94.475 31.7699 93.938 31.7699C92.5955 31.7699 91.7005 31.3274 91.074 30.354C90.8055 29.823 90.537 29.2035 90.4475 28.2301C89.642 29.2035 88.568 30.0885 87.0465 30.885C85.6145 31.5929 84.0035 32.0354 82.2135 32.0354C80.0655 32.0354 78.365 31.4159 77.0225 30.0885C75.68 28.8496 75.0535 27.2566 75.0535 25.3097C75.0535 23.1858 75.68 21.5929 77.0225 20.4425C78.365 19.292 80.0655 18.5841 82.2135 18.3186L88.21 17.3451ZM80.155 27.6106C80.9605 28.2301 81.945 28.5841 83.019 28.5841C84.3615 28.5841 85.704 28.3186 86.957 27.6991C89.105 26.6372 90.179 24.9558 90.179 22.6549V19.646C89.7315 19.9115 89.105 20.177 88.389 20.354C87.673 20.531 86.957 20.708 86.241 20.7965L83.914 21.0619C82.482 21.2389 81.4975 21.5044 80.7815 21.9469C79.618 22.5664 78.9915 23.6283 78.9915 25.1327C78.9915 26.1062 79.3495 26.9912 80.155 27.6106Z" fill="#2844BD"/>
<path d="M101.009 2.2124H104.857V8.49559H108.527V11.5929H104.857V26.2832C104.857 27.0797 105.126 27.6106 105.663 27.8761C105.931 28.0531 106.468 28.1416 107.184 28.1416C107.363 28.1416 107.542 28.1416 107.811 28.1416C107.99 28.1416 108.258 28.1416 108.527 28.0531V30.9735C108.079 31.062 107.632 31.1505 107.184 31.2389C106.737 31.3274 106.2 31.3274 105.663 31.3274C103.873 31.3274 102.62 30.885 101.993 30C101.367 29.1151 101.009 27.9646 101.009 26.4602V11.5929H97.9656V8.49559H101.009V2.2124Z" fill="#2844BD"/>
<path d="M112.375 0H116.224V11.5044C117.119 10.354 117.924 9.55752 118.64 9.11504C119.893 8.31858 121.414 7.87611 123.294 7.87611C126.605 7.87611 128.843 9.02655 130.006 11.3274C130.633 12.5664 130.991 14.3363 130.991 16.5487V30.9735H127.053V16.8142C127.053 15.1327 126.874 13.9823 126.426 13.1858C125.71 11.9469 124.458 11.3274 122.489 11.3274C120.878 11.3274 119.446 11.8584 118.193 12.9204C116.94 13.9823 116.224 16.0177 116.224 19.0265V30.9735H112.375V0Z" fill="#2844BD"/>
<path d="M153.187 10.708C155.246 12.6549 156.23 15.4867 156.23 19.292C156.23 22.9204 155.335 25.9292 153.545 28.3186C151.755 30.708 148.981 31.8584 145.222 31.8584C142.089 31.8584 139.583 30.7965 137.793 28.6726C135.914 26.5487 135.019 23.7168 135.019 20.2655C135.019 16.4602 136.003 13.4513 137.972 11.2389C139.941 9.02655 142.537 7.87611 145.759 7.87611C148.712 7.78762 151.218 8.76107 153.187 10.708ZM150.86 25.7522C151.845 23.8938 152.292 21.7699 152.292 19.3805C152.292 17.2566 151.934 15.5752 151.308 14.2478C150.234 12.2124 148.354 11.1504 145.759 11.1504C143.432 11.1504 141.731 12.0354 140.657 13.8053C139.583 15.5752 139.046 17.6991 139.046 20.177C139.046 22.5664 139.583 24.6018 140.657 26.1947C141.731 27.7876 143.432 28.5841 145.759 28.5841C148.175 28.5841 149.876 27.6106 150.86 25.7522Z" fill="#2844BD"/>
<path d="M160.795 8.49557H164.464V11.6814C165.538 10.354 166.702 9.38053 167.865 8.84956C169.029 8.31858 170.371 7.9646 171.893 7.9646C175.115 7.9646 177.352 9.11504 178.426 11.3274C179.053 12.5664 179.321 14.3363 179.321 16.5487V30.9734H175.383V16.8142C175.383 15.3982 175.204 14.3363 174.757 13.4513C174.041 12.0354 172.877 11.3274 171.087 11.3274C170.192 11.3274 169.476 11.4159 168.85 11.5929C167.776 11.8584 166.881 12.4779 166.075 13.4513C165.449 14.1593 165.001 14.9557 164.822 15.7522C164.643 16.5487 164.554 17.6991 164.554 19.115V30.9734H160.705V8.49557H160.795Z" fill="#2844BD"/>
<path fill-rule="evenodd" clip-rule="evenodd" d="M8.10748 30.2657C10.345 30.2657 12.2245 28.4073 12.2245 26.1949H12.4035V18.2303C12.4035 17.4338 11.6875 16.9028 10.9715 16.9913C10.345 17.0798 9.89754 17.6108 9.89754 18.2303V26.1949C9.89754 27.1683 9.09204 27.8763 8.19704 27.8763C7.21254 27.8763 6.49654 27.0798 6.49654 26.1949V18.2303C6.49654 15.6639 8.64454 13.6285 11.24 13.717C13.6565 13.8055 15.6255 15.8409 15.6255 18.3188V26.1949L15.6255 26.1949C15.6255 30.2657 12.2245 33.6285 8.10748 33.6285C3.99048 33.6285 0.589478 30.2657 0.589478 26.1949V18.2303C0.589478 12.5666 5.24348 7.96478 10.9715 7.96478C16.6995 7.96478 21.3535 12.5666 21.443 18.2303V37.4338H18.1315V18.2303C18.1315 14.3365 14.9095 11.2391 11.061 11.2391C7.12298 11.2391 3.99048 14.425 3.99048 18.2303V26.1949C3.99048 28.4073 5.86998 30.2657 8.10748 30.2657Z" fill="#2844BD"/>
</g>
<defs>
<clipPath id="clip0_1406_21854">
<rect width="179" height="40" fill="white" transform="translate(0.5)"/>
</clipPath>
</defs>
</svg>
