<svg width="415" height="585" viewBox="0 0 415 585" fill="none" xmlns="http://www.w3.org/2000/svg">
<path d="M204.419 0C91.6359 0 0 91.3514 0 203.784V361.892C0 442.703 66.9647 509.459 148.027 509.459C229.09 509.459 296.054 442.703 296.054 361.892V205.541C296.054 156.351 257.285 115.946 209.705 114.189C158.601 112.432 116.307 152.838 116.307 203.784V361.892C116.307 379.459 130.405 395.27 149.789 395.27C167.412 395.27 183.272 381.216 183.272 361.892V203.784C183.272 191.486 192.083 180.946 204.419 179.189C218.516 177.432 232.614 187.973 232.614 203.784V361.892C232.614 405.811 195.607 442.703 151.552 442.703C107.496 442.703 70.4891 405.811 70.4891 361.892V203.784C70.4891 128.243 132.167 65 209.705 65C287.243 65 348.921 126.486 348.921 203.784V585H414.124V203.784C408.837 91.3514 317.201 0 204.419 0Z" fill="#2844BD"/>
</svg>
