<svg width="121" height="28" viewBox="0 0 121 28" fill="none" xmlns="http://www.w3.org/2000/svg">
<g clip-path="url(#clip0_1548_4649)">
<path d="M18.0896 6.29436H20.5701V8.32534C21.1146 7.60852 21.6591 7.07091 22.2641 6.7125C23.1716 6.11516 24.2001 5.87622 25.3496 5.87622C27.1041 5.87622 28.5561 6.5333 29.7661 7.84746C30.9761 9.16162 31.5811 11.0731 31.5811 13.5222C31.5811 16.8076 30.6736 19.197 28.9191 20.6306C27.8301 21.5267 26.4991 22.0045 25.0471 22.0045C23.8976 22.0045 22.9296 21.7656 22.1431 21.228C21.6591 20.9293 21.1751 20.4514 20.6306 19.7944V27.5598H18.0291V6.29436H18.0896ZM27.7696 18.2413C28.5561 17.2258 28.9796 15.7324 28.9796 13.7612C28.9796 12.5665 28.7981 11.4913 28.4351 10.655C27.7696 8.98242 26.5596 8.14613 24.7446 8.14613C22.9296 8.14613 21.7196 9.04215 21.0541 10.7745C20.6911 11.7302 20.5096 12.9249 20.5096 14.3585C20.5096 15.5532 20.6911 16.509 21.0541 17.3452C21.7196 18.8983 22.9296 19.6749 24.7446 19.6749C26.0151 19.7346 26.9831 19.197 27.7696 18.2413Z" fill="#2844BD"/>
<path d="M34.4851 6.29436H37.0261V8.32534C37.5706 7.60852 38.1151 7.07091 38.7201 6.7125C39.5671 6.11516 40.5956 5.87622 41.7451 5.87622C43.4996 5.87622 44.9516 6.5333 46.1616 7.84746C47.3716 9.16162 47.9766 11.0731 47.9766 13.5222C47.9766 16.8076 47.0691 19.197 45.3146 20.6306C44.2256 21.5267 42.8946 22.0045 41.4426 22.0045C40.2931 22.0045 39.3251 21.7656 38.5386 21.228C38.0546 20.9293 37.5706 20.4514 37.0261 19.7944V27.5598H34.4851V6.29436ZM44.1651 18.2413C44.9516 17.2258 45.3751 15.7324 45.3751 13.7612C45.3751 12.5665 45.1936 11.4913 44.8306 10.655C44.1651 8.92268 42.9551 8.0864 41.1401 8.0864C39.3251 8.0864 38.1151 8.98242 37.4496 10.7147C37.0866 11.6705 36.9051 12.8652 36.9051 14.2988C36.9051 15.4935 37.0866 16.4492 37.4496 17.2855C38.1151 18.8386 39.3251 19.6152 41.1401 19.6152C42.3501 19.7346 43.3786 19.197 44.1651 18.2413Z" fill="#2844BD"/>
<path d="M59.2901 12.2079C59.8951 12.1482 60.2581 11.9092 60.5001 11.4911C60.6211 11.2522 60.6816 10.9535 60.6816 10.5353C60.6816 9.63933 60.3791 9.04199 59.7136 8.62384C59.1086 8.2057 58.2011 8.0265 56.9911 8.0265C55.6601 8.0265 54.6921 8.38491 54.0871 9.10172C53.7846 9.51986 53.5426 10.1172 53.4821 10.8938H51.0621C51.1226 9.04199 51.7276 7.72783 52.9376 7.01101C54.1476 6.2942 55.4786 5.93579 57.0516 5.93579C58.8666 5.93579 60.3186 6.2942 61.4681 6.95128C62.6176 7.60836 63.1621 8.68358 63.1621 10.1172V18.8982C63.1621 19.1371 63.2226 19.3761 63.3436 19.5553C63.4646 19.7345 63.7066 19.7942 64.0696 19.7942C64.1906 19.7942 64.3116 19.7942 64.4326 19.7942C64.5536 19.7942 64.7351 19.7345 64.9166 19.7345V21.646C64.4931 21.7654 64.1906 21.8252 64.0091 21.8849C63.8276 21.8849 63.5251 21.9446 63.1621 21.9446C62.2546 21.9446 61.6496 21.646 61.2261 20.9889C61.0446 20.6305 60.8631 20.2123 60.8026 19.5553C60.2581 20.2123 59.5321 20.8097 58.5036 21.3473C57.5356 21.8252 56.4466 22.1238 55.2366 22.1238C53.7846 22.1238 52.6351 21.7057 51.7276 20.8097C50.8201 19.9734 50.3966 18.8982 50.3966 17.584C50.3966 16.1504 50.8201 15.0752 51.7276 14.2986C52.6351 13.5221 53.7846 13.0442 55.2366 12.865L59.2901 12.2079ZM53.8451 19.1371C54.3896 19.5553 55.0551 19.7942 55.7811 19.7942C56.6886 19.7942 57.5961 19.615 58.4431 19.1969C59.8951 18.48 60.6211 17.3451 60.6211 15.792V13.761C60.3186 13.9402 59.8951 14.1194 59.4111 14.2389C58.9271 14.3584 58.4431 14.4778 57.9591 14.5376L56.3861 14.7168C55.4181 14.8362 54.7526 15.0154 54.2686 15.3141C53.4821 15.7323 53.0586 16.4491 53.0586 17.4646C53.0586 18.1216 53.3006 18.719 53.8451 19.1371Z" fill="#2844BD"/>
<path d="M67.9415 1.99341H70.543V6.23456H73.0235V8.32527H70.543V18.2412C70.543 18.7788 70.7245 19.1372 71.0875 19.3164C71.269 19.4359 71.632 19.4956 72.116 19.4956C72.237 19.4956 72.358 19.4956 72.5395 19.4956C72.6605 19.4956 72.842 19.4956 73.0235 19.4359V21.4071C72.721 21.4669 72.4185 21.5266 72.116 21.5863C71.8135 21.6461 71.4505 21.6461 71.0875 21.6461C69.8775 21.6461 69.0305 21.3474 68.607 20.75C68.1835 20.1527 67.9415 19.3762 67.9415 18.3607V8.32527H65.8845V6.23456H67.9415V1.99341Z" fill="#2844BD"/>
<path d="M75.625 0.5H78.2265V8.26549C78.8315 7.48894 79.376 6.95133 79.86 6.65265C80.707 6.11504 81.7355 5.81637 83.006 5.81637C85.2445 5.81637 86.757 6.59292 87.5435 8.14602C87.967 8.9823 88.209 10.177 88.209 11.6704V21.4071H85.547V11.8496C85.547 10.7146 85.426 9.93805 85.1235 9.40044C84.6395 8.56416 83.7925 8.14602 82.4615 8.14602C81.3725 8.14602 80.4045 8.50443 79.5575 9.22124C78.7105 9.93805 78.2265 11.3119 78.2265 13.3429V21.4071H75.625V0.5Z" fill="#2844BD"/>
<path d="M103.213 7.72799C104.605 9.04215 105.27 10.9536 105.27 13.5222C105.27 15.9713 104.665 18.0023 103.455 19.6152C102.245 21.228 100.37 22.0045 97.8285 22.0045C95.711 22.0045 94.017 21.2877 92.807 19.8541C91.5365 18.4205 90.9315 16.509 90.9315 14.1793C90.9315 11.6107 91.597 9.57976 92.928 8.08639C94.259 6.59303 96.0135 5.81648 98.1915 5.81648C100.188 5.75675 101.882 6.41383 103.213 7.72799ZM101.64 17.8829C102.306 16.6284 102.608 15.1948 102.608 13.582C102.608 12.1483 102.366 11.0134 101.943 10.1174C101.217 8.74347 99.946 8.02666 98.1915 8.02666C96.6185 8.02666 95.469 8.624 94.743 9.81869C94.017 11.0134 93.654 12.447 93.654 14.1196C93.654 15.7324 94.017 17.1063 94.743 18.1815C95.469 19.2567 96.6185 19.7944 98.1915 19.7944C99.825 19.7944 100.975 19.1373 101.64 17.8829Z" fill="#2844BD"/>
<path d="M108.356 6.23463H110.836V8.38507C111.562 7.48905 112.349 6.83197 113.135 6.47357C113.922 6.11516 114.829 5.87622 115.858 5.87622C118.036 5.87622 119.548 6.65277 120.274 8.14613C120.698 8.98242 120.879 10.1771 120.879 11.6705V21.4072H118.217V11.8497C118.217 10.8939 118.096 10.1771 117.794 9.57976C117.31 8.62401 116.523 8.14613 115.313 8.14613C114.708 8.14613 114.224 8.20587 113.801 8.32534C113.075 8.50454 112.47 8.92268 111.925 9.57976C111.502 10.0576 111.199 10.5952 111.078 11.1329C110.957 11.6705 110.897 12.447 110.897 13.4028V21.4072H108.295V6.23463H108.356Z" fill="#2844BD"/>
<path fill-rule="evenodd" clip-rule="evenodd" d="M5.14255 20.9293C6.65505 20.9293 7.92555 19.6749 7.92555 18.1815H8.04659V12.8054C8.04659 12.2678 7.56259 11.9094 7.07859 11.9691C6.65509 12.0289 6.35259 12.3873 6.35259 12.8054V18.1815C6.35259 18.8386 5.80809 19.3165 5.20309 19.3165C4.53759 19.3165 4.05359 18.7789 4.05359 18.1815V12.8054C4.05359 11.0731 5.50559 9.69922 7.26009 9.75896C8.89359 9.81869 10.2246 11.1926 10.2246 12.8652V18.1815L10.2245 18.1815C10.2245 20.9293 7.92555 23.1992 5.14255 23.1992C2.35955 23.1992 0.0605469 20.9293 0.0605469 18.1815V12.8054C0.0605469 8.98242 3.20655 5.87622 7.07855 5.87622C10.9505 5.87622 14.0965 8.98242 14.157 12.8054V25.7678H11.9185V12.8054C11.9185 10.1771 9.74055 8.0864 7.13905 8.0864C4.47705 8.0864 2.35955 10.2368 2.35955 12.8054V18.1815C2.35955 19.6749 3.63005 20.9293 5.14255 20.9293Z" fill="#2844BD"/>
</g>
<defs>
<clipPath id="clip0_1548_4649">
<rect width="121" height="27" fill="white" transform="translate(0 0.5)"/>
</clipPath>
</defs>
</svg>
