<svg width="935" height="1069" viewBox="0 0 935 1069" fill="none" xmlns="http://www.w3.org/2000/svg">
<g clip-path="url(#clip0_3_113)">
<path d="M0 20C0 8.95429 8.95431 0 20 0H915C926.046 0 935 8.95431 935 20V1049C935 1060.05 926.046 1069 915 1069H20C8.95431 1069 0 1060.05 0 1049V20Z" fill="#2844BD"/>
<path d="M461.038 -55C206.672 -55 0 150.658 0 403.775V759.721C0 941.649 151.03 1091.94 333.855 1091.94C516.681 1091.94 667.711 941.649 667.711 759.721V407.73C667.711 296.991 580.272 206.027 472.962 202.072C357.702 198.117 262.315 289.081 262.315 403.775V759.721C262.315 799.27 294.111 834.865 337.83 834.865C377.574 834.865 413.345 803.225 413.345 759.721V403.775C413.345 376.09 433.217 352.36 461.038 348.405C492.834 344.45 524.63 368.18 524.63 403.775V759.721C524.63 858.595 441.166 941.649 341.804 941.649C242.443 941.649 158.979 858.595 158.979 759.721V403.775C158.979 233.712 298.085 91.3333 472.962 91.3333C647.838 91.3333 786.945 229.757 786.945 403.775V1262H934V403.775C922.077 150.658 715.404 -55 461.038 -55Z" fill="white" fill-opacity="0.02"/>
<path d="M464.356 242C577.139 242 668.775 333.352 674.062 445.784V827H608.859V445.784C608.859 368.487 547.182 307 469.644 307C392.105 307 330.428 370.244 330.428 445.784V603.892C330.428 647.811 367.435 684.703 411.49 684.703C455.546 684.703 492.553 647.81 492.553 603.892V445.784C492.553 429.973 478.454 419.433 464.356 421.189C452.021 422.946 443.21 433.487 443.21 445.784V603.892C443.21 623.216 427.35 637.271 409.728 637.271C390.343 637.27 376.245 621.459 376.245 603.892V445.784C376.245 394.838 418.539 354.433 469.644 356.189C517.224 357.946 555.992 398.352 555.992 447.541V603.892C555.992 684.702 489.028 751.46 407.966 751.46C326.903 751.46 259.938 684.702 259.938 603.892V445.784C259.938 333.352 351.574 242 464.356 242Z" fill="white"/>
</g>
<defs>
<clipPath id="clip0_3_113">
<path d="M0 20C0 8.95429 8.95431 0 20 0H915C926.046 0 935 8.95431 935 20V1049C935 1060.05 926.046 1069 915 1069H20C8.95431 1069 0 1060.05 0 1049V20Z" fill="white"/>
</clipPath>
</defs>
</svg>
